<svg id="Layer_1" data-name="Layer 1" xmlns="http://www.w3.org/2000/svg" viewBox="0 0 595.28 595.28"><defs><style>.cls-1,.cls-2{fill:#999898;}.cls-2{stroke:#999898;stroke-miterlimit:10;stroke-width:2px;}</style></defs><title>logo app pet [Recovered]</title><path class="cls-1" d="M282.12,217.83c46.67.25,77.85,36.4,71.59,75.38-1.49,9.27-5,18.37-8.53,27.15-10.56,26.09-8.62,50.54,8.16,73.46,2.42,3.29,4.93,6.52,7.14,10,11.85,18.38,11.34,38.88-1.31,55.19s-32.88,23-52.79,16.79c-7.75-2.41-15.24-5.81-22.73-9.06-14.32-6.22-28.28-12-44.77-12-17.41,0-33.74-7.69-45.71-20.13-10.41-10.85-22.73-16.82-35.89-22.33-6.89-2.88-13.85-5.73-20.5-9.12-21.12-10.83-30.59-29.73-26.56-52.24,3.87-21.61,18.62-35.21,41.76-38.51,2.7-.39,5.45-.35,8.15-.69,28.62-3.5,49.49-17.77,61.32-44.49a132.64,132.64,0,0,1,6.06-13C241.19,230.35,261.94,218.34,282.12,217.83Zm-2.7,48.68A34.49,34.49,0,0,0,245.14,302a35.14,35.14,0,0,0,35.71,34.33c19-.43,34.93-16.9,34.54-35.77C315,281.51,298.81,266.16,279.42,266.51Z"/><path class="cls-1" d="M216.87,111.59c.4-28.62,7.91-49.33,25.18-65.64,25.11-23.71,59.59-20.07,79.7,7.94,22.59,31.45,17.86,82.22-10.13,109.06-25.55,24.49-60.93,21-81.07-8.14C220.55,140.34,216.27,124.08,216.87,111.59Z"/><path class="cls-1" d="M447,104.29c30.37.18,51.09,20.83,51.63,51.42.71,40.61-36.79,81.56-77.18,84.24-33,2.19-56.56-19.69-56.64-52.59C364.68,144.48,404.68,104,447,104.29Z"/><path class="cls-1" d="M192.5,205.18c-.35,17.4-5.59,33.91-18.13,47.5-18.72,20.31-47.19,20.62-66.71,1-25.47-25.56-26.21-74.09-1.51-100.28,19.68-20.89,48.55-20.83,68,.47C187.2,168.07,192.5,185.28,192.5,205.18Z"/><path class="cls-1" d="M434.78,393.72c-33.39.08-52.83-25.42-45.1-59.2,7-30.77,39.49-56.57,71.33-56.72,32.57-.14,52.24,24.51,45.59,57.19C500.13,366.83,467.33,393.63,434.78,393.72Z"/><rect class="cls-1" x="168.21" y="461.27" width="14.32" height="115.8" rx="7.16" transform="translate(243.51 -24.57) rotate(25.81)"/><rect class="cls-1" x="146.73" y="463" width="14.32" height="59.34" rx="7.16" transform="translate(229.83 -17.86) rotate(25.81)"/><rect class="cls-1" x="201.99" y="489.72" width="14.32" height="59.34" rx="7.16" transform="translate(246.98 -39.25) rotate(25.81)"/><rect class="cls-1" x="189.46" y="354.6" width="82.09" height="98.21" rx="25.52" transform="translate(184.95 -58.93) rotate(24.1)"/><path class="cls-1" d="M299,285.73A23.86,23.86,0,0,1,304.2,304a24.2,24.2,0,0,1-9.26,15.74,2.53,2.53,0,0,0,0,3.54,2.56,2.56,0,0,0,3.53,0,28.64,28.64,0,0,0,4.06-41.08,2.53,2.53,0,0,0-3.54,0,2.55,2.55,0,0,0,0,3.53Z"/><circle class="cls-2" cx="293.55" cy="278.31" r="2.05"/></svg>