<svg id="Layer_1" data-name="Layer 1" xmlns="http://www.w3.org/2000/svg" viewBox="0 0 595.28 595.28"><defs><style>.cls-1,.cls-2{fill:#1d1d1b;}.cls-2{stroke:#1d1d1b;stroke-miterlimit:10;stroke-width:0.5px;}</style></defs><title>logo app pet</title><path d="M289.91,261.94c22.81.12,38,17.79,35,36.84a62.48,62.48,0,0,1-4.17,13.27c-5.16,12.75-4.21,24.7,4,35.9,1.18,1.61,2.41,3.19,3.49,4.87,5.79,9,5.54,19-.64,27a23.28,23.28,0,0,1-25.8,8.21,111.24,111.24,0,0,1-11.11-4.43c-7-3-13.82-5.88-21.88-5.87a31.14,31.14,0,0,1-22.34-9.84c-5.09-5.3-11.11-8.22-17.54-10.91-3.37-1.41-6.77-2.8-10-4.46-10.32-5.29-14.95-14.53-13-25.53,1.89-10.56,9.1-17.21,20.41-18.82,1.32-.19,2.66-.17,4-.34,14-1.71,24.19-8.68,30-21.74a66.24,66.24,0,0,1,3-6.33C269.91,268.06,280.05,262.19,289.91,261.94Zm-1.32,23.79a16.86,16.86,0,0,0-16.75,17.34,17.17,17.17,0,0,0,17.45,16.78,17.5,17.5,0,0,0,16.88-17.48A17.2,17.2,0,0,0,288.59,285.73Z"/><path d="M258,210c.2-14,3.87-24.11,12.31-32.08,12.27-11.59,29.12-9.81,38.95,3.88,11,15.37,8.73,40.18-4.95,53.3-12.49,12-29.78,10.28-39.62-4C259.82,224.07,257.73,216.12,258,210Z"/><path d="M370.47,206.45c14.84.09,25,10.18,25.23,25.13.35,19.85-18,39.86-37.72,41.17-16.13,1.07-27.64-9.62-27.68-25.7C330.26,226.09,349.81,206.32,370.47,206.45Z"/><path d="M246.11,255.76c-.17,8.5-2.73,16.57-8.86,23.21-9.15,9.93-23.06,10.08-32.6.51-12.45-12.49-12.81-36.21-.74-49,9.62-10.21,23.73-10.18,33.26.23C243.52,237.62,246.11,246,246.11,255.76Z"/><path d="M364.52,347.9c-16.32,0-25.82-12.42-22-28.93,3.44-15,19.3-27.65,34.86-27.72,15.92-.07,25.53,12,22.28,27.95C396.46,334.76,380.43,347.86,364.52,347.9Z"/><rect x="234.24" y="380.92" width="7" height="56.59" rx="3.5" transform="translate(201.86 -62.69) rotate(25.81)"/><rect x="223.75" y="381.76" width="7" height="29" rx="3.5" transform="translate(195.18 -59.41) rotate(25.81)"/><rect x="250.75" y="394.82" width="7" height="29" rx="3.5" transform="translate(203.56 -69.86) rotate(25.81)"/><rect x="244.63" y="328.79" width="40.12" height="48" rx="12.47" transform="translate(167.14 -77.33) rotate(24.1)"/><path class="cls-1" d="M298.14,295.15a11.69,11.69,0,0,1-2,16.58,1.26,1.26,0,0,0,0,1.77,1.29,1.29,0,0,0,1.77,0,14.05,14.05,0,0,0,2-20.12c-1-1.24-2.78.53-1.77,1.77Z"/><circle class="cls-2" cx="295.5" cy="291.5" r="1"/></svg>