<svg id="Layer_1" data-name="Layer 1" xmlns="http://www.w3.org/2000/svg" viewBox="0 0 595.28 595.28"><defs><style>.cls-1,.cls-2{fill:#999898;}.cls-2{stroke:#999898;stroke-miterlimit:10;stroke-width:2px;}.cls-3{fill:#fff;}</style></defs><title>dmm</title><path class="cls-1" d="M298.23,269.74a21,21,0,0,1-3.54,30.11,1.89,1.89,0,0,0,0,2.65,1.92,1.92,0,0,0,2.65,0,24.67,24.67,0,0,0,3.54-35.41,1.89,1.89,0,0,0-2.65,0,1.91,1.91,0,0,0,0,2.65Z"/><circle class="cls-2" cx="293.26" cy="263.48" r="1.79"/><path class="cls-1" d="M200.41,369.79l10.31-23.05a30.31,30.31,0,0,1,39.93-15.24l10.2,4.56A30.31,30.31,0,0,1,276.1,376L272,385.25h8.14V365.81c0-24.86,22.3-45.09,49.71-45.09,1.06,0,2.11,0,3.15.1a76.38,76.38,0,0,1,5.35-20.65c3.1-7.66,6.14-15.6,7.44-23.69,5.46-34-21.74-65.55-62.46-65.76-17.6.44-35.71,10.92-47.65,31.76a115,115,0,0,0-5.28,11.3c-10.32,23.31-28.53,35.75-53.51,38.81-2.35.3-4.74.26-7.1.6-20.19,2.88-33.06,14.75-36.44,33.6-3.51,19.64,4.75,36.13,23.18,45.58,5.8,3,11.87,5.44,17.88,8,9.5,4,18.49,8.23,26.46,14.94A30.19,30.19,0,0,1,200.41,369.79Zm80.52-116.6c16.92-.31,31.06,13.08,31.38,29.7.34,16.46-13.53,30.83-30.13,31.21a30.66,30.66,0,0,1-31.15-30A30.09,30.09,0,0,1,280.93,253.19Z"/><path class="cls-1" d="M309,162.84c24.42-23.42,28.55-67.71,8.84-95.15-17.55-24.44-47.63-27.62-69.54-6.93-15.06,14.23-21.62,32.3-22,57.27-.52,10.89,3.21,25.08,11.94,37.7C255.87,181.19,286.73,184.21,309,162.84Z"/><path class="cls-1" d="M404.81,230c35.24-2.34,68-38.07,67.33-73.5-.46-26.69-18.55-44.7-45-44.86-36.88-.24-71.78,35.06-71.71,72.48C355.46,212.84,376,231.93,404.81,230Z"/><path class="cls-1" d="M189.28,241.12c10.94-11.85,15.51-26.26,15.82-41.44,0-17.37-4.63-32.38-16-44.73-17-18.59-42.21-18.64-59.38-.41-21.55,22.85-20.9,65.19,1.32,87.49C148.11,259.11,172.94,258.85,189.28,241.12Z"/><path class="cls-1" d="M439.37,263c-27.78.13-56.09,22.64-62.23,49.49-6.75,29.47,10.21,51.71,39.34,51.64,28.4-.07,57-23.46,62.66-51.23C484.94,284.43,467.79,262.92,439.37,263Z"/><rect class="cls-1" x="139.64" y="467.38" width="101.03" height="12.5" rx="5.88" transform="translate(-319.02 438.66) rotate(-64.2)"/><rect class="cls-1" x="145.53" y="444.26" width="51.77" height="12.5" rx="5.88" transform="translate(-308.78 408.7) rotate(-64.19)"/><path class="cls-1" d="M222.71,453.09l-17.41,36A5.89,5.89,0,0,0,208,497l.66.32a5.9,5.9,0,0,0,7.86-2.73L231.8,463a46.75,46.75,0,0,1-7.59-11.84A5.83,5.83,0,0,0,222.71,453.09Z"/><path class="cls-1" d="M205.69,399.8a64.12,64.12,0,0,0-4.86-4.53,30.07,30.07,0,0,0,14.83,14.45l8,3.58c.09-.2.18-.4.26-.6A58.37,58.37,0,0,1,205.69,399.8Z"/><path class="cls-1" d="M223.93,412.7c6.93-16.16,22.44-27.45,40.42-27.45H272L276.1,376a30.31,30.31,0,0,0-15.25-39.93l-10.2-4.56a30.31,30.31,0,0,0-39.93,15.24l-10.31,23.05a30.19,30.19,0,0,0,.42,25.48,64.12,64.12,0,0,1,4.86,4.53A58.37,58.37,0,0,0,223.93,412.7Z"/><path class="cls-3" d="M238.63,416.89l1.53.2.15-.27C239.75,416.86,239.19,416.88,238.63,416.89Z"/><path class="cls-3" d="M238.63,416.89a53.71,53.71,0,0,1-14.7-4.19c-.08.2-.17.4-.26.6l2.19,1A30,30,0,0,0,238.63,416.89Z"/><path class="cls-1" d="M299,506.92c0,15.69,13.8,28.41,30.82,28.41s30.82-12.72,30.82-28.41V478H299Z"/><path class="cls-1" d="M351.66,373a47.88,47.88,0,0,1,5.74,12.29h3.23V365.81c0-14.53-11.82-26.5-27.08-28.21a64.36,64.36,0,0,0,11.88,26.66C347.54,367.14,349.73,370,351.66,373Z"/><path class="cls-1" d="M351.66,373c-1.93-3-4.12-5.82-6.23-8.7a64.36,64.36,0,0,1-11.88-26.66,35.45,35.45,0,0,0-3.74-.21c-17,0-30.82,12.72-30.82,28.42v19.44H357.4A47.88,47.88,0,0,0,351.66,373Z"/><rect class="cls-1" x="298.99" y="460.75" width="61.65" height="17.22"/><path class="cls-1" d="M358.68,402.48h1.95V385.25H357.4A39.42,39.42,0,0,1,358.68,402.48Z"/><path class="cls-1" d="M358.68,402.48a39.42,39.42,0,0,0-1.28-17.23H299v17.23Z"/><path class="cls-1" d="M395.27,460.75c15.41,0,27.91-13,27.91-29.14s-12.5-29.13-27.91-29.13H379.52v58.27Z"/><path class="cls-1" d="M245.57,417.37a54,54,0,0,1-5.41-.28,30,30,0,0,0-3.72,14.52c0,16.1,12.5,29.14,27.91,29.14H280.1V425.91C269.15,421.27,258.21,417.36,245.57,417.37Z"/><path class="cls-1" d="M280.1,425.91V402.48H264a30.38,30.38,0,0,1-23.65,14.33l-.15.27a54,54,0,0,0,5.41.28C258.21,417.36,269.15,421.27,280.1,425.91Z"/><path class="cls-1" d="M240.31,416.82A30.38,30.38,0,0,0,264,402.49,27.7,27.7,0,0,0,240.31,416.82Z"/><path class="cls-1" d="M284.63,427.85c-1.52-.66-3-1.31-4.53-1.94v34.84H299V433.86C294.14,432,289.38,429.92,284.63,427.85Z"/><rect class="cls-1" x="360.63" y="402.48" width="18.88" height="58.28"/><path class="cls-1" d="M280.1,402.48v23.43c1.51.63,3,1.28,4.53,1.94,4.75,2.07,9.51,4.19,14.36,6V402.48Z"/><path class="cls-1" d="M358.68,402.48a40.07,40.07,0,0,1-8.16,18.62c-11,14.27-28.69,20.07-46.06,14.66-1.84-.57-3.66-1.22-5.47-1.9v26.89h61.64V402.48Z"/><path class="cls-1" d="M299,433.86c1.81.68,3.63,1.33,5.47,1.9,17.37,5.41,35-.39,46.06-14.66a40.07,40.07,0,0,0,8.16-18.62H299Z"/></svg>