<svg id="Layer_1" data-name="Layer 1" xmlns="http://www.w3.org/2000/svg" viewBox="0 0 653 661"><defs><style>.cls-1,.cls-2{fill:#999898;}.cls-2{stroke:#999898;stroke-miterlimit:10;}.cls-3{fill:#9e9e9e;}</style></defs><title>tìm</title><path class="cls-1" d="M390.75,239c15.81.09,26.38,12.34,24.26,25.55a44,44,0,0,1-2.89,9.2c-3.58,8.84-2.92,17.12,2.76,24.89.82,1.11,1.68,2.21,2.42,3.37,4,6.23,3.85,13.18-.44,18.7a16.15,16.15,0,0,1-17.89,5.7,75.8,75.8,0,0,1-7.7-3.08c-4.85-2.1-9.58-4.07-15.17-4.07a21.56,21.56,0,0,1-15.49-6.82c-3.53-3.67-7.7-5.7-12.16-7.56-2.34-1-4.7-1.94-6.95-3.09-7.15-3.67-10.36-10.08-9-17.71,1.31-7.32,6.31-11.93,14.15-13,.92-.14,1.85-.12,2.76-.24,9.7-1.19,16.77-6,20.78-15.07a46.13,46.13,0,0,1,2.05-4.39C376.88,243.27,383.91,239.2,390.75,239Zm-.92,16.5a11.69,11.69,0,0,0-11.61,12,11.91,11.91,0,0,0,12.1,11.63A12.12,12.12,0,0,0,402,267.06,11.92,11.92,0,0,0,389.83,255.52Z"/><path class="cls-1" d="M368.64,203c.14-9.7,2.68-16.72,8.53-22.25,8.51-8,20.19-6.8,27,2.69,7.65,10.66,6.05,27.86-3.43,37-8.66,8.3-20.65,7.13-27.47-2.76A24.88,24.88,0,0,1,368.64,203Z"/><path class="cls-1" d="M446.6,200.55c10.29.06,17.32,7.06,17.5,17.42.24,13.77-12.47,27.64-26.16,28.55-11.18.74-19.16-6.67-19.19-17.82C418.73,214.17,432.28,200.46,446.6,200.55Z"/><path class="cls-1" d="M360.38,234.74a23.7,23.7,0,0,1-6.14,16.09c-6.35,6.89-16,7-22.61.35-8.63-8.66-8.88-25.1-.51-34,6.67-7.07,16.45-7,23.06.16C358.59,222.16,360.38,228,360.38,234.74Z"/><path class="cls-1" d="M442.48,298.62c-11.32,0-17.9-8.61-15.28-20.06,2.38-10.42,13.38-19.17,24.17-19.21,11-.05,17.7,8.3,15.45,19.37C464.62,289.51,453.51,298.6,442.48,298.62Z"/><rect class="cls-1" x="352.15" y="321.51" width="4.85" height="39.24" rx="2.43" transform="translate(183.88 -120.34) rotate(25.81)"/><rect class="cls-1" x="344.87" y="322.1" width="4.85" height="20.11" rx="2.43" transform="translate(179.24 -118.07) rotate(25.81)"/><rect class="cls-1" x="363.6" y="331.15" width="4.85" height="20.11" rx="2.43" transform="translate(185.05 -125.32) rotate(25.81)"/><rect class="cls-1" x="359.35" y="285.37" width="27.82" height="33.28" rx="12.47" transform="translate(155.87 -126.09) rotate(24.1)"/><path class="cls-1" d="M396.18,262.32a7.7,7.7,0,0,1,1.67,5.77,7.88,7.88,0,0,1-3,5.18,1.26,1.26,0,0,0,0,1.77,1.29,1.29,0,0,0,1.77,0A10.11,10.11,0,0,0,398,260.55a1.27,1.27,0,0,0-1.77,0,1.29,1.29,0,0,0,0,1.77Z"/><circle class="cls-2" cx="394.62" cy="259.52" r="0.69"/><path class="cls-3" d="M533.79,273c-1.62,9.23-2.63,18.62-5,27.66-8,30.51-24.61,55.53-49.45,74.91-28.54,22.28-61.17,31.89-97.15,29.53a137.47,137.47,0,0,1-71.81-25.84c-2.62-1.87-5.15-3.88-7.73-5.81a5.85,5.85,0,0,0-1-.41c-7.14,7.15-14.4,14.32-21.49,21.66a4.41,4.41,0,0,0-.61,3.78c6.23,17.23,2.62,32.15-10.24,45q-40.05,40.05-80.12,80.1C171.78,541,144.34,539.71,129.48,521c-12.7-15.94-11.23-38.5,3.7-53.5q40.24-40.43,80.68-80.69a45.18,45.18,0,0,1,4.52-4c11.68-8.92,24.56-11,38.34-6,3,1.09,4.74.71,6.9-1.54,6.62-6.86,13.48-13.48,19.58-19.54-6.36-10.74-13.13-20.64-18.35-31.3-11.3-23.06-15.26-47.65-12.87-73.23,3.07-32.74,15.94-61.09,38.71-84.76,22.34-23.22,49.62-37.16,81.56-41.83,3.84-.56,7.67-1.08,11.51-1.62H400.7c6.49.91,13.06,1.49,19.47,2.8A139.88,139.88,0,0,1,488.73,161c19.53,18.21,33,40.17,39.83,65.94,2.53,9.52,3.53,19.44,5.23,29.18ZM392.67,380.23c64-.24,116.08-52.53,115.7-116.11-.39-64.2-52.59-116.24-116.06-115.7-64.36.55-116,52.35-115.75,116.06C276.84,328.5,329,380.47,392.67,380.23ZM160.45,510.49c5,.08,8.59-2.5,11.92-5.85q39.42-39.5,78.9-78.95a30.36,30.36,0,0,0,3.22-3.59,14.1,14.1,0,0,0-7-21.72c-6.54-2.18-11.67.29-16.29,4.93Q191.71,445,152.07,484.54a24.91,24.91,0,0,0-3.19,3.63A13.69,13.69,0,0,0,148,503C150.6,508,154.92,510.32,160.45,510.49Z"/></svg>